<?xml version="1.0" standalone="no"?>
<!DOCTYPE svg PUBLIC "-//W3C//DTD SVG 20010904//EN"
 "http://www.w3.org/TR/2001/REC-SVG-20010904/DTD/svg10.dtd">
<svg version="1.0" xmlns="http://www.w3.org/2000/svg"
 width="750.000000pt" height="750.000000pt" viewBox="0 0 750.000000 750.000000"
 preserveAspectRatio="xMidYMid meet">

<g transform="translate(0.000000,750.000000) scale(0.100000,-0.100000)"
fill="#000000" stroke="none">
<path d="M2788 6022 c-4 -13 -96 -82 -107 -82 -5 0 -11 -4 -13 -9 -1 -5 -142
-114 -313 -242 -170 -128 -315 -237 -322 -243 -6 -6 -34 -27 -62 -46 -28 -19
-53 -41 -56 -49 -8 -20 4 -36 470 -656 545 -725 611 -811 660 -865 22 -25 117
-146 209 -270 93 -124 172 -227 175 -230 3 -3 19 -23 34 -46 15 -22 35 -49 45
-60 9 -10 29 -37 44 -59 15 -22 39 -53 53 -70 35 -43 38 -46 65 -85 13 -19 32
-44 42 -54 10 -11 30 -38 45 -60 15 -23 31 -43 34 -46 4 -3 111 -144 239 -315
128 -170 238 -315 244 -321 6 -6 18 -22 26 -34 8 -12 26 -36 39 -53 l23 -32
-7 30 c-4 17 -11 48 -16 70 -5 22 -5 435 -2 918 6 874 6 877 -14 900 -11 12
-119 153 -239 312 -119 160 -220 292 -223 295 -3 3 -18 23 -33 45 -15 22 -39
54 -53 70 -35 43 -38 46 -65 85 -13 19 -32 44 -42 54 -10 11 -30 38 -45 60
-15 23 -31 43 -34 46 -3 3 -131 172 -285 375 -153 204 -282 375 -286 380 -5 6
-17 21 -28 34 -11 13 -20 27 -20 30 0 3 -14 22 -30 41 -38 45 -41 48 -70 90
-13 19 -28 40 -32 45 -36 44 -47 55 -50 47z"/>
<path d="M2448 4108 c-2 -5 -12 -11 -23 -12 -11 -2 -19 -9 -17 -15 1 -6 -7
-11 -18 -11 -11 0 -20 -4 -20 -10 0 -22 -2 -25 -19 -32 -15 -5 -17 -13 -11
-52 4 -27 3 -47 -3 -49 -5 -1 -2 -11 8 -20 9 -10 14 -24 11 -32 -6 -17 22 -34
44 -28 13 4 13 3 0 -6 -13 -10 -13 -12 0 -21 8 -5 22 -7 32 -4 9 2 19 0 23 -6
4 -7 12 -7 25 0 10 5 27 10 36 10 18 0 84 65 84 82 0 5 4 7 9 3 14 -8 31 28
26 55 -3 13 -10 27 -17 32 -10 6 -10 8 1 8 11 0 9 4 -5 15 -11 8 -14 14 -6 15
8 0 5 8 -8 23 -12 12 -23 21 -26 19 -3 -2 -13 5 -22 15 -9 10 -23 19 -30 21
-40 8 -72 8 -74 0z"/>
<path d="M4803 4040 c-14 -16 -32 -30 -40 -30 -7 0 -13 -5 -13 -11 0 -5 5 -7
10 -4 6 3 10 1 10 -4 0 -6 -5 -11 -11 -11 -5 0 -7 -5 -4 -10 3 -6 0 -12 -7
-15 -15 -6 -23 -95 -8 -95 5 0 11 -8 15 -17 8 -25 40 -62 56 -65 7 -2 19 -8
26 -15 7 -6 21 -10 30 -9 10 2 21 -2 26 -8 5 -8 10 -6 17 4 5 8 10 11 10 7 0
-10 66 29 97 58 37 34 63 145 34 145 -5 0 -14 14 -21 30 -8 18 -20 30 -31 30
-17 0 -21 5 -18 27 1 13 -35 22 -93 22 -52 1 -61 -2 -85 -29z"/>
</g>
</svg>
